<?xml version="1.0" encoding="UTF-8" standalone="no"?><!-- Generator: Gravit.io --><svg xmlns="http://www.w3.org/2000/svg" xmlns:xlink="http://www.w3.org/1999/xlink" style="isolation:isolate" viewBox="0 0 92 92" width="92pt" height="92pt"><defs><clipPath id="_clipPath_1QoLJUDOTpzSFiwje8FxcXPY38jpkram"><rect width="92" height="92"/></clipPath></defs><g clip-path="url(#_clipPath_1QoLJUDOTpzSFiwje8FxcXPY38jpkram)"><rect x="9" y="7" width="74" height="79" transform="matrix(1,0,0,1,0,0)" fill="rgb(255,255,255)"/><path d=" M 25 17.8 L 25 5 C 25 2.2 27.2 0 30 0 C 32.8 0 35 2.2 35 5 L 35 17.8 C 35 20.6 32.8 22.8 30 22.8 C 27.2 22.8 25 20.6 25 17.8 Z  M 62 22.8 C 64.8 22.8 67 20.6 67 17.8 L 67 5 C 67 2.2 64.8 0 62 0 C 59.2 0 57 2.2 57 5 L 57 17.8 C 57 20.6 59.2 22.8 62 22.8 Z  M 28.2 40 L 63.7 40 C 65.9 40 67.7 38.2 67.7 36 C 67.7 33.8 65.9 32 63.7 32 L 28.2 32 C 26 32 24.2 33.8 24.2 36 C 24.2 38.2 26 40 28.2 40 Z  M 84 7 L 75.7 7 C 73.5 7 71.7 8.8 71.7 11 C 71.7 13.2 73.5 15 75.7 15 L 80 15 L 80 83 L 12 83 L 12 15 L 16.3 15 C 18.5 15 20.3 13.2 20.3 11 C 20.3 8.8 18.5 7 16.3 7 L 8 7 C 5.8 7 4 9.2 4 11.4 L 4 87 C 4 89.2 5.8 91 8 91 L 84 91 C 86.2 91 88 89.2 88 87 L 88 11.4 C 88 9.2 86.2 7 84 7 Z  M 42.7 15 L 49.3 15 C 51.5 15 53.3 13.2 53.3 11 C 53.3 8.8 51.5 7 49.3 7 L 42.7 7 C 40.5 7 38.7 8.8 38.7 11 C 38.7 13.2 40.5 15 42.7 15 Z  M 28.2 58 L 63.7 58 C 65.9 58 67.7 56.2 67.7 54 C 67.7 51.8 65.9 50 63.7 50 L 28.2 50 C 26 50 24.2 51.8 24.2 54 C 24.2 56.2 26 58 28.2 58 Z " fill="rgb(0,0,0)"/></g></svg>
